G04 #@! TF.GenerationSoftware,KiCad,Pcbnew,(5.1.4)-1*
G04 #@! TF.CreationDate,2024-07-23T11:44:27+08:00*
G04 #@! TF.ProjectId,irog2k-pcb-demo,69726f67-326b-42d7-9063-622d64656d6f,rev?*
G04 #@! TF.SameCoordinates,Original*
G04 #@! TF.FileFunction,Legend,Top*
G04 #@! TF.FilePolarity,Positive*
%FSLAX46Y46*%
G04 Gerber Fmt 4.6, Leading zero omitted, Abs format (unit mm)*
G04 Created by KiCad (PCBNEW (5.1.4)-1) date 2024-07-23 11:44:27*
%MOMM*%
%LPD*%
G04 APERTURE LIST*
%ADD10C,0.150000*%
G04 APERTURE END LIST*
D10*
X110657440Y-103639880D02*
X110657440Y-102973214D01*
X110657440Y-103068452D02*
X110705059Y-103020833D01*
X110800297Y-102973214D01*
X110943154Y-102973214D01*
X111038392Y-103020833D01*
X111086011Y-103116071D01*
X111086011Y-103639880D01*
X111086011Y-103116071D02*
X111133630Y-103020833D01*
X111228869Y-102973214D01*
X111371726Y-102973214D01*
X111466964Y-103020833D01*
X111514583Y-103116071D01*
X111514583Y-103639880D01*
X112419345Y-103639880D02*
X112419345Y-103116071D01*
X112371726Y-103020833D01*
X112276488Y-102973214D01*
X112086011Y-102973214D01*
X111990773Y-103020833D01*
X112419345Y-103592261D02*
X112324107Y-103639880D01*
X112086011Y-103639880D01*
X111990773Y-103592261D01*
X111943154Y-103497023D01*
X111943154Y-103401785D01*
X111990773Y-103306547D01*
X112086011Y-103258928D01*
X112324107Y-103258928D01*
X112419345Y-103211309D01*
X113324107Y-103639880D02*
X113324107Y-102639880D01*
X113324107Y-103592261D02*
X113228869Y-103639880D01*
X113038392Y-103639880D01*
X112943154Y-103592261D01*
X112895535Y-103544642D01*
X112847916Y-103449404D01*
X112847916Y-103163690D01*
X112895535Y-103068452D01*
X112943154Y-103020833D01*
X113038392Y-102973214D01*
X113228869Y-102973214D01*
X113324107Y-103020833D01*
X114181250Y-103592261D02*
X114086011Y-103639880D01*
X113895535Y-103639880D01*
X113800297Y-103592261D01*
X113752678Y-103497023D01*
X113752678Y-103116071D01*
X113800297Y-103020833D01*
X113895535Y-102973214D01*
X114086011Y-102973214D01*
X114181250Y-103020833D01*
X114228869Y-103116071D01*
X114228869Y-103211309D01*
X113752678Y-103306547D01*
X115419345Y-103639880D02*
X115419345Y-102639880D01*
X115419345Y-103020833D02*
X115514583Y-102973214D01*
X115705059Y-102973214D01*
X115800297Y-103020833D01*
X115847916Y-103068452D01*
X115895535Y-103163690D01*
X115895535Y-103449404D01*
X115847916Y-103544642D01*
X115800297Y-103592261D01*
X115705059Y-103639880D01*
X115514583Y-103639880D01*
X115419345Y-103592261D01*
X116228869Y-102973214D02*
X116466964Y-103639880D01*
X116705059Y-102973214D02*
X116466964Y-103639880D01*
X116371726Y-103877976D01*
X116324107Y-103925595D01*
X116228869Y-103973214D01*
X117847916Y-103639880D02*
X117847916Y-102639880D01*
X117943154Y-103258928D02*
X118228869Y-103639880D01*
X118228869Y-102973214D02*
X117847916Y-103354166D01*
X119086011Y-102973214D02*
X119086011Y-103639880D01*
X118657440Y-102973214D02*
X118657440Y-103497023D01*
X118705059Y-103592261D01*
X118800297Y-103639880D01*
X118943154Y-103639880D01*
X119038392Y-103592261D01*
X119086011Y-103544642D01*
X119562202Y-103639880D02*
X119562202Y-102973214D01*
X119562202Y-103068452D02*
X119609821Y-103020833D01*
X119705059Y-102973214D01*
X119847916Y-102973214D01*
X119943154Y-103020833D01*
X119990773Y-103116071D01*
X119990773Y-103639880D01*
X119990773Y-103116071D02*
X120038392Y-103020833D01*
X120133630Y-102973214D01*
X120276488Y-102973214D01*
X120371726Y-103020833D01*
X120419345Y-103116071D01*
X120419345Y-103639880D01*
X121038392Y-103639880D02*
X120943154Y-103592261D01*
X120895535Y-103544642D01*
X120847916Y-103449404D01*
X120847916Y-103163690D01*
X120895535Y-103068452D01*
X120943154Y-103020833D01*
X121038392Y-102973214D01*
X121181250Y-102973214D01*
X121276488Y-103020833D01*
X121324107Y-103068452D01*
X121371726Y-103163690D01*
X121371726Y-103449404D01*
X121324107Y-103544642D01*
X121276488Y-103592261D01*
X121181250Y-103639880D01*
X121038392Y-103639880D01*
X121657440Y-102973214D02*
X122038392Y-102973214D01*
X121800297Y-102639880D02*
X121800297Y-103497023D01*
X121847916Y-103592261D01*
X121943154Y-103639880D01*
X122038392Y-103639880D01*
X122324107Y-103592261D02*
X122419345Y-103639880D01*
X122609821Y-103639880D01*
X122705059Y-103592261D01*
X122752678Y-103497023D01*
X122752678Y-103449404D01*
X122705059Y-103354166D01*
X122609821Y-103306547D01*
X122466964Y-103306547D01*
X122371726Y-103258928D01*
X122324107Y-103163690D01*
X122324107Y-103116071D01*
X122371726Y-103020833D01*
X122466964Y-102973214D01*
X122609821Y-102973214D01*
X122705059Y-103020833D01*
X117380059Y-101258630D02*
X117380059Y-100591964D01*
X117380059Y-100258630D02*
X117332440Y-100306250D01*
X117380059Y-100353869D01*
X117427678Y-100306250D01*
X117380059Y-100258630D01*
X117380059Y-100353869D01*
X117856250Y-101258630D02*
X117856250Y-100591964D01*
X117856250Y-100782440D02*
X117903869Y-100687202D01*
X117951488Y-100639583D01*
X118046726Y-100591964D01*
X118141964Y-100591964D01*
X118618154Y-101258630D02*
X118522916Y-101211011D01*
X118475297Y-101163392D01*
X118427678Y-101068154D01*
X118427678Y-100782440D01*
X118475297Y-100687202D01*
X118522916Y-100639583D01*
X118618154Y-100591964D01*
X118761011Y-100591964D01*
X118856250Y-100639583D01*
X118903869Y-100687202D01*
X118951488Y-100782440D01*
X118951488Y-101068154D01*
X118903869Y-101163392D01*
X118856250Y-101211011D01*
X118761011Y-101258630D01*
X118618154Y-101258630D01*
X119808630Y-100591964D02*
X119808630Y-101401488D01*
X119761011Y-101496726D01*
X119713392Y-101544345D01*
X119618154Y-101591964D01*
X119475297Y-101591964D01*
X119380059Y-101544345D01*
X119808630Y-101211011D02*
X119713392Y-101258630D01*
X119522916Y-101258630D01*
X119427678Y-101211011D01*
X119380059Y-101163392D01*
X119332440Y-101068154D01*
X119332440Y-100782440D01*
X119380059Y-100687202D01*
X119427678Y-100639583D01*
X119522916Y-100591964D01*
X119713392Y-100591964D01*
X119808630Y-100639583D01*
X120999107Y-100353869D02*
X121046726Y-100306250D01*
X121141964Y-100258630D01*
X121380059Y-100258630D01*
X121475297Y-100306250D01*
X121522916Y-100353869D01*
X121570535Y-100449107D01*
X121570535Y-100544345D01*
X121522916Y-100687202D01*
X120951488Y-101258630D01*
X121570535Y-101258630D01*
X121999107Y-101258630D02*
X121999107Y-100258630D01*
X122094345Y-100877678D02*
X122380059Y-101258630D01*
X122380059Y-100591964D02*
X121999107Y-100972916D01*
M02*
