M48
; DRILL file {KiCad (5.1.4)-1} date 23/07/2024 11:45:12 am
; FORMAT={-:-/ absolute / inch / decimal}
; #@! TF.CreationDate,2024-07-23T11:45:12+08:00
; #@! TF.GenerationSoftware,Kicad,Pcbnew,(5.1.4)-1
; #@! TF.FileFunction,Plated,1,2,PTH
FMAT,2
INCH
T1C0.0157
T2C0.0276
T3C0.0409
T4C0.0579
%
G90
G05
T1
X3.25Y-3.3438
X3.2812Y-3.6562
X3.4375Y-3.7812
X3.5625Y-2.0625
X3.625Y-3.3125
X3.6562Y-3.6562
X3.6875Y-2.0
X3.6875Y-3.4062
X3.7188Y-3.25
X3.7188Y-3.625
X3.7812Y-2.0312
X3.7812Y-3.0
X3.7812Y-3.4375
X3.7812Y-3.6875
X3.8438Y-3.2812
X3.875Y-2.0938
X3.9688Y-2.0625
X4.0312Y-2.0625
X4.0312Y-3.2812
X4.0938Y-2.4062
X4.2188Y-3.5312
X4.3125Y-3.75
X4.3438Y-3.5312
X4.4062Y-3.1875
X4.4096Y-3.5988
X4.4688Y-3.5
X4.5Y-2.9688
X4.5Y-3.75
X4.5312Y-3.4062
X4.625Y-2.0312
X4.6875Y-3.625
X4.75Y-2.3125
X4.8125Y-3.0625
X4.8438Y-2.125
T3
X4.3825Y-2.72
X4.4825Y-2.72
X3.634Y-2.72
X3.734Y-2.72
T4
X4.2825Y-2.42
X4.3341Y-2.3625
X4.5309Y-2.3429
X4.5325Y-2.32
X3.534Y-2.42
X3.5856Y-2.3625
X3.7825Y-2.3429
X3.784Y-2.32
T2
G00X3.915Y-1.7914
M15
G01X3.915Y-1.8386
M16
G05
G00X3.915Y-1.9685
M15
G01X3.915Y-2.0158
M16
G05
G00X4.2024Y-1.7914
M15
G01X4.2024Y-1.8386
M16
G05
G00X4.2024Y-1.9685
M15
G01X4.2024Y-2.0158
M16
G05
T0
M30
