G04 #@! TF.GenerationSoftware,KiCad,Pcbnew,(5.1.4)-1*
G04 #@! TF.CreationDate,2024-07-23T11:44:27+08:00*
G04 #@! TF.ProjectId,irog2k-pcb-demo,69726f67-326b-42d7-9063-622d64656d6f,rev?*
G04 #@! TF.SameCoordinates,Original*
G04 #@! TF.FileFunction,Legend,Bot*
G04 #@! TF.FilePolarity,Positive*
%FSLAX46Y46*%
G04 Gerber Fmt 4.6, Leading zero omitted, Abs format (unit mm)*
G04 Created by KiCad (PCBNEW (5.1.4)-1) date 2024-07-23 11:44:27*
%MOMM*%
%LPD*%
G04 APERTURE LIST*
%ADD10C,0.120000*%
%ADD11C,0.150000*%
G04 APERTURE END LIST*
D10*
X95186750Y-80548750D02*
X95186750Y-77248750D01*
X95186750Y-77248750D02*
X99186750Y-77248750D01*
D11*
X99241000Y-46101000D02*
X99241000Y-51551000D01*
X106941000Y-46101000D02*
X106941000Y-51551000D01*
X99241000Y-51551000D02*
X106941000Y-51551000D01*
X92011750Y-95980000D02*
X92011750Y-95405000D01*
X102361750Y-95980000D02*
X102361750Y-95305000D01*
X102361750Y-85630000D02*
X102361750Y-86305000D01*
X92011750Y-85630000D02*
X92011750Y-86305000D01*
X92011750Y-95980000D02*
X92686750Y-95980000D01*
X92011750Y-85630000D02*
X92686750Y-85630000D01*
X102361750Y-85630000D02*
X101686750Y-85630000D01*
X102361750Y-95980000D02*
X101686750Y-95980000D01*
X92011750Y-95405000D02*
X90736750Y-95405000D01*
X114621000Y-83880000D02*
X119821000Y-83880000D01*
X119821000Y-83880000D02*
X119821000Y-78680000D01*
X119821000Y-78680000D02*
X114621000Y-78680000D01*
X114621000Y-78680000D02*
X114621000Y-83880000D01*
X118221000Y-81280000D02*
G75*
G03X118221000Y-81280000I-1000000J0D01*
G01*
D10*
X105589000Y-94238578D02*
X105589000Y-93721422D01*
X107009000Y-94238578D02*
X107009000Y-93721422D01*
X86847750Y-82618078D02*
X86847750Y-82100922D01*
X85427750Y-82618078D02*
X85427750Y-82100922D01*
X86863422Y-47550000D02*
X87380578Y-47550000D01*
X86863422Y-48970000D02*
X87380578Y-48970000D01*
X118232422Y-47423000D02*
X118749578Y-47423000D01*
X118232422Y-48843000D02*
X118749578Y-48843000D01*
X119994000Y-94455064D02*
X119994000Y-93250936D01*
X121814000Y-94455064D02*
X121814000Y-93250936D01*
X119523000Y-61408750D02*
X119523000Y-65308750D01*
X121523000Y-61408750D02*
X121523000Y-65308750D01*
X119523000Y-61408750D02*
X121523000Y-61408750D01*
X100473000Y-61408750D02*
X100473000Y-65308750D01*
X102473000Y-61408750D02*
X102473000Y-65308750D01*
X100473000Y-61408750D02*
X102473000Y-61408750D01*
X92483172Y-100595500D02*
X93000328Y-100595500D01*
X92483172Y-99175500D02*
X93000328Y-99175500D01*
X87920328Y-89396500D02*
X87403172Y-89396500D01*
X87920328Y-90816500D02*
X87403172Y-90816500D01*
X90149750Y-82618078D02*
X90149750Y-82100922D01*
X88729750Y-82618078D02*
X88729750Y-82100922D01*
X101865500Y-79157328D02*
X101865500Y-78640172D01*
X100445500Y-79157328D02*
X100445500Y-78640172D01*
X92508000Y-78640172D02*
X92508000Y-79157328D01*
X93928000Y-78640172D02*
X93928000Y-79157328D01*
X107040750Y-86301078D02*
X107040750Y-85783922D01*
X105620750Y-86301078D02*
X105620750Y-85783922D01*
X102525328Y-99429500D02*
X102008172Y-99429500D01*
X102525328Y-100849500D02*
X102008172Y-100849500D01*
D11*
X97662940Y-81324940D02*
X97662940Y-81801130D01*
X97996273Y-80801130D02*
X97662940Y-81324940D01*
X97329607Y-80801130D01*
X96472464Y-81801130D02*
X97043892Y-81801130D01*
X96758178Y-81801130D02*
X96758178Y-80801130D01*
X96853416Y-80943988D01*
X96948654Y-81039226D01*
X97043892Y-81086845D01*
X104829095Y-47585380D02*
X104829095Y-48394904D01*
X104781476Y-48490142D01*
X104733857Y-48537761D01*
X104638619Y-48585380D01*
X104448142Y-48585380D01*
X104352904Y-48537761D01*
X104305285Y-48490142D01*
X104257666Y-48394904D01*
X104257666Y-47585380D01*
X103829095Y-48537761D02*
X103686238Y-48585380D01*
X103448142Y-48585380D01*
X103352904Y-48537761D01*
X103305285Y-48490142D01*
X103257666Y-48394904D01*
X103257666Y-48299666D01*
X103305285Y-48204428D01*
X103352904Y-48156809D01*
X103448142Y-48109190D01*
X103638619Y-48061571D01*
X103733857Y-48013952D01*
X103781476Y-47966333D01*
X103829095Y-47871095D01*
X103829095Y-47775857D01*
X103781476Y-47680619D01*
X103733857Y-47633000D01*
X103638619Y-47585380D01*
X103400523Y-47585380D01*
X103257666Y-47633000D01*
X102495761Y-48061571D02*
X102352904Y-48109190D01*
X102305285Y-48156809D01*
X102257666Y-48252047D01*
X102257666Y-48394904D01*
X102305285Y-48490142D01*
X102352904Y-48537761D01*
X102448142Y-48585380D01*
X102829095Y-48585380D01*
X102829095Y-47585380D01*
X102495761Y-47585380D01*
X102400523Y-47633000D01*
X102352904Y-47680619D01*
X102305285Y-47775857D01*
X102305285Y-47871095D01*
X102352904Y-47966333D01*
X102400523Y-48013952D01*
X102495761Y-48061571D01*
X102829095Y-48061571D01*
X101305285Y-48585380D02*
X101876714Y-48585380D01*
X101591000Y-48585380D02*
X101591000Y-47585380D01*
X101686238Y-47728238D01*
X101781476Y-47823476D01*
X101876714Y-47871095D01*
X97948654Y-97707380D02*
X97948654Y-98516904D01*
X97901035Y-98612142D01*
X97853416Y-98659761D01*
X97758178Y-98707380D01*
X97567702Y-98707380D01*
X97472464Y-98659761D01*
X97424845Y-98612142D01*
X97377226Y-98516904D01*
X97377226Y-97707380D01*
X96377226Y-98707380D02*
X96948654Y-98707380D01*
X96662940Y-98707380D02*
X96662940Y-97707380D01*
X96758178Y-97850238D01*
X96853416Y-97945476D01*
X96948654Y-97993095D01*
X118554333Y-77620761D02*
X118411476Y-77668380D01*
X118173380Y-77668380D01*
X118078142Y-77620761D01*
X118030523Y-77573142D01*
X117982904Y-77477904D01*
X117982904Y-77382666D01*
X118030523Y-77287428D01*
X118078142Y-77239809D01*
X118173380Y-77192190D01*
X118363857Y-77144571D01*
X118459095Y-77096952D01*
X118506714Y-77049333D01*
X118554333Y-76954095D01*
X118554333Y-76858857D01*
X118506714Y-76763619D01*
X118459095Y-76716000D01*
X118363857Y-76668380D01*
X118125761Y-76668380D01*
X117982904Y-76716000D01*
X117649571Y-76668380D02*
X117411476Y-77668380D01*
X117221000Y-76954095D01*
X117030523Y-77668380D01*
X116792428Y-76668380D01*
X115887666Y-77668380D02*
X116459095Y-77668380D01*
X116173380Y-77668380D02*
X116173380Y-76668380D01*
X116268619Y-76811238D01*
X116363857Y-76906476D01*
X116459095Y-76954095D01*
X108401380Y-93813333D02*
X107925190Y-93480000D01*
X108401380Y-93241904D02*
X107401380Y-93241904D01*
X107401380Y-93622857D01*
X107449000Y-93718095D01*
X107496619Y-93765714D01*
X107591857Y-93813333D01*
X107734714Y-93813333D01*
X107829952Y-93765714D01*
X107877571Y-93718095D01*
X107925190Y-93622857D01*
X107925190Y-93241904D01*
X107734714Y-94670476D02*
X108401380Y-94670476D01*
X107353761Y-94432380D02*
X108068047Y-94194285D01*
X108068047Y-94813333D01*
X88240130Y-82192833D02*
X87763940Y-81859500D01*
X88240130Y-81621404D02*
X87240130Y-81621404D01*
X87240130Y-82002357D01*
X87287750Y-82097595D01*
X87335369Y-82145214D01*
X87430607Y-82192833D01*
X87573464Y-82192833D01*
X87668702Y-82145214D01*
X87716321Y-82097595D01*
X87763940Y-82002357D01*
X87763940Y-81621404D01*
X87240130Y-82526166D02*
X87240130Y-83145214D01*
X87621083Y-82811880D01*
X87621083Y-82954738D01*
X87668702Y-83049976D01*
X87716321Y-83097595D01*
X87811559Y-83145214D01*
X88049654Y-83145214D01*
X88144892Y-83097595D01*
X88192511Y-83049976D01*
X88240130Y-82954738D01*
X88240130Y-82669023D01*
X88192511Y-82573785D01*
X88144892Y-82526166D01*
X87288666Y-50362380D02*
X87622000Y-49886190D01*
X87860095Y-50362380D02*
X87860095Y-49362380D01*
X87479142Y-49362380D01*
X87383904Y-49410000D01*
X87336285Y-49457619D01*
X87288666Y-49552857D01*
X87288666Y-49695714D01*
X87336285Y-49790952D01*
X87383904Y-49838571D01*
X87479142Y-49886190D01*
X87860095Y-49886190D01*
X86907714Y-49457619D02*
X86860095Y-49410000D01*
X86764857Y-49362380D01*
X86526761Y-49362380D01*
X86431523Y-49410000D01*
X86383904Y-49457619D01*
X86336285Y-49552857D01*
X86336285Y-49648095D01*
X86383904Y-49790952D01*
X86955333Y-50362380D01*
X86336285Y-50362380D01*
X118657666Y-50235380D02*
X118991000Y-49759190D01*
X119229095Y-50235380D02*
X119229095Y-49235380D01*
X118848142Y-49235380D01*
X118752904Y-49283000D01*
X118705285Y-49330619D01*
X118657666Y-49425857D01*
X118657666Y-49568714D01*
X118705285Y-49663952D01*
X118752904Y-49711571D01*
X118848142Y-49759190D01*
X119229095Y-49759190D01*
X117705285Y-50235380D02*
X118276714Y-50235380D01*
X117991000Y-50235380D02*
X117991000Y-49235380D01*
X118086238Y-49378238D01*
X118181476Y-49473476D01*
X118276714Y-49521095D01*
X122652571Y-93519666D02*
X122652571Y-93186333D01*
X123176380Y-93186333D02*
X122176380Y-93186333D01*
X122176380Y-93662523D01*
X123176380Y-94567285D02*
X123176380Y-93995857D01*
X123176380Y-94281571D02*
X122176380Y-94281571D01*
X122319238Y-94186333D01*
X122414476Y-94091095D01*
X122462095Y-93995857D01*
X118975380Y-62920654D02*
X117975380Y-62920654D01*
X117975380Y-63158750D01*
X118023000Y-63301607D01*
X118118238Y-63396845D01*
X118213476Y-63444464D01*
X118403952Y-63492083D01*
X118546809Y-63492083D01*
X118737285Y-63444464D01*
X118832523Y-63396845D01*
X118927761Y-63301607D01*
X118975380Y-63158750D01*
X118975380Y-62920654D01*
X118070619Y-63873035D02*
X118023000Y-63920654D01*
X117975380Y-64015892D01*
X117975380Y-64253988D01*
X118023000Y-64349226D01*
X118070619Y-64396845D01*
X118165857Y-64444464D01*
X118261095Y-64444464D01*
X118403952Y-64396845D01*
X118975380Y-63825416D01*
X118975380Y-64444464D01*
X99925380Y-62920654D02*
X98925380Y-62920654D01*
X98925380Y-63158750D01*
X98973000Y-63301607D01*
X99068238Y-63396845D01*
X99163476Y-63444464D01*
X99353952Y-63492083D01*
X99496809Y-63492083D01*
X99687285Y-63444464D01*
X99782523Y-63396845D01*
X99877761Y-63301607D01*
X99925380Y-63158750D01*
X99925380Y-62920654D01*
X99925380Y-64444464D02*
X99925380Y-63873035D01*
X99925380Y-64158750D02*
X98925380Y-64158750D01*
X99068238Y-64063511D01*
X99163476Y-63968273D01*
X99211095Y-63873035D01*
X92908416Y-101892642D02*
X92956035Y-101940261D01*
X93098892Y-101987880D01*
X93194130Y-101987880D01*
X93336988Y-101940261D01*
X93432226Y-101845023D01*
X93479845Y-101749785D01*
X93527464Y-101559309D01*
X93527464Y-101416452D01*
X93479845Y-101225976D01*
X93432226Y-101130738D01*
X93336988Y-101035500D01*
X93194130Y-100987880D01*
X93098892Y-100987880D01*
X92956035Y-101035500D01*
X92908416Y-101083119D01*
X92575083Y-100987880D02*
X91908416Y-100987880D01*
X92336988Y-101987880D01*
X87828416Y-88813642D02*
X87876035Y-88861261D01*
X88018892Y-88908880D01*
X88114130Y-88908880D01*
X88256988Y-88861261D01*
X88352226Y-88766023D01*
X88399845Y-88670785D01*
X88447464Y-88480309D01*
X88447464Y-88337452D01*
X88399845Y-88146976D01*
X88352226Y-88051738D01*
X88256988Y-87956500D01*
X88114130Y-87908880D01*
X88018892Y-87908880D01*
X87876035Y-87956500D01*
X87828416Y-88004119D01*
X86971273Y-87908880D02*
X87161750Y-87908880D01*
X87256988Y-87956500D01*
X87304607Y-88004119D01*
X87399845Y-88146976D01*
X87447464Y-88337452D01*
X87447464Y-88718404D01*
X87399845Y-88813642D01*
X87352226Y-88861261D01*
X87256988Y-88908880D01*
X87066511Y-88908880D01*
X86971273Y-88861261D01*
X86923654Y-88813642D01*
X86876035Y-88718404D01*
X86876035Y-88480309D01*
X86923654Y-88385071D01*
X86971273Y-88337452D01*
X87066511Y-88289833D01*
X87256988Y-88289833D01*
X87352226Y-88337452D01*
X87399845Y-88385071D01*
X87447464Y-88480309D01*
X91446892Y-82192833D02*
X91494511Y-82145214D01*
X91542130Y-82002357D01*
X91542130Y-81907119D01*
X91494511Y-81764261D01*
X91399273Y-81669023D01*
X91304035Y-81621404D01*
X91113559Y-81573785D01*
X90970702Y-81573785D01*
X90780226Y-81621404D01*
X90684988Y-81669023D01*
X90589750Y-81764261D01*
X90542130Y-81907119D01*
X90542130Y-82002357D01*
X90589750Y-82145214D01*
X90637369Y-82192833D01*
X90542130Y-83097595D02*
X90542130Y-82621404D01*
X91018321Y-82573785D01*
X90970702Y-82621404D01*
X90923083Y-82716642D01*
X90923083Y-82954738D01*
X90970702Y-83049976D01*
X91018321Y-83097595D01*
X91113559Y-83145214D01*
X91351654Y-83145214D01*
X91446892Y-83097595D01*
X91494511Y-83049976D01*
X91542130Y-82954738D01*
X91542130Y-82716642D01*
X91494511Y-82621404D01*
X91446892Y-82573785D01*
X103162642Y-78732083D02*
X103210261Y-78684464D01*
X103257880Y-78541607D01*
X103257880Y-78446369D01*
X103210261Y-78303511D01*
X103115023Y-78208273D01*
X103019785Y-78160654D01*
X102829309Y-78113035D01*
X102686452Y-78113035D01*
X102495976Y-78160654D01*
X102400738Y-78208273D01*
X102305500Y-78303511D01*
X102257880Y-78446369D01*
X102257880Y-78541607D01*
X102305500Y-78684464D01*
X102353119Y-78732083D01*
X102591214Y-79589226D02*
X103257880Y-79589226D01*
X102210261Y-79351130D02*
X102924547Y-79113035D01*
X102924547Y-79732083D01*
X91925142Y-78732083D02*
X91972761Y-78684464D01*
X92020380Y-78541607D01*
X92020380Y-78446369D01*
X91972761Y-78303511D01*
X91877523Y-78208273D01*
X91782285Y-78160654D01*
X91591809Y-78113035D01*
X91448952Y-78113035D01*
X91258476Y-78160654D01*
X91163238Y-78208273D01*
X91068000Y-78303511D01*
X91020380Y-78446369D01*
X91020380Y-78541607D01*
X91068000Y-78684464D01*
X91115619Y-78732083D01*
X91020380Y-79065416D02*
X91020380Y-79684464D01*
X91401333Y-79351130D01*
X91401333Y-79493988D01*
X91448952Y-79589226D01*
X91496571Y-79636845D01*
X91591809Y-79684464D01*
X91829904Y-79684464D01*
X91925142Y-79636845D01*
X91972761Y-79589226D01*
X92020380Y-79493988D01*
X92020380Y-79208273D01*
X91972761Y-79113035D01*
X91925142Y-79065416D01*
X108337892Y-85875833D02*
X108385511Y-85828214D01*
X108433130Y-85685357D01*
X108433130Y-85590119D01*
X108385511Y-85447261D01*
X108290273Y-85352023D01*
X108195035Y-85304404D01*
X108004559Y-85256785D01*
X107861702Y-85256785D01*
X107671226Y-85304404D01*
X107575988Y-85352023D01*
X107480750Y-85447261D01*
X107433130Y-85590119D01*
X107433130Y-85685357D01*
X107480750Y-85828214D01*
X107528369Y-85875833D01*
X107528369Y-86256785D02*
X107480750Y-86304404D01*
X107433130Y-86399642D01*
X107433130Y-86637738D01*
X107480750Y-86732976D01*
X107528369Y-86780595D01*
X107623607Y-86828214D01*
X107718845Y-86828214D01*
X107861702Y-86780595D01*
X108433130Y-86209166D01*
X108433130Y-86828214D01*
X102433416Y-98846642D02*
X102481035Y-98894261D01*
X102623892Y-98941880D01*
X102719130Y-98941880D01*
X102861988Y-98894261D01*
X102957226Y-98799023D01*
X103004845Y-98703785D01*
X103052464Y-98513309D01*
X103052464Y-98370452D01*
X103004845Y-98179976D01*
X102957226Y-98084738D01*
X102861988Y-97989500D01*
X102719130Y-97941880D01*
X102623892Y-97941880D01*
X102481035Y-97989500D01*
X102433416Y-98037119D01*
X101481035Y-98941880D02*
X102052464Y-98941880D01*
X101766750Y-98941880D02*
X101766750Y-97941880D01*
X101861988Y-98084738D01*
X101957226Y-98179976D01*
X102052464Y-98227595D01*
M02*
